<mxfile host="app.diagrams.net" modified="2023-05-31T16:32:03.005Z" agent="Mozilla/5.0 (Windows NT 10.0; Win64; x64) AppleWebKit/537.36 (KHTML, like Gecko) Chrome/113.0.0.0 Safari/537.36 Edg/113.0.1774.57" etag="wMDzkrFkTd7Q-izKeHwp" version="21.2.9" type="device" pages="3">
  <diagram name="mode" id="uMLHTpZcIAxPMtQZR5Q7">
    <mxGraphModel dx="1379" dy="764" grid="1" gridSize="10" guides="1" tooltips="1" connect="1" arrows="1" fold="1" page="1" pageScale="1" pageWidth="850" pageHeight="1100" math="0" shadow="0">
      <root>
        <mxCell id="0" />
        <mxCell id="1" parent="0" />
        <mxCell id="QKaGyioDrKer-OyYTomA-1" value="&lt;b&gt;Is themeMode null?&lt;/b&gt;" style="rounded=1;whiteSpace=wrap;html=1;fillColor=#d5e8d4;strokeColor=#82b366;" parent="1" vertex="1">
          <mxGeometry x="365" y="100" width="120" height="60" as="geometry" />
        </mxCell>
        <mxCell id="QKaGyioDrKer-OyYTomA-2" value="" style="endArrow=classic;html=1;rounded=0;entryX=0.5;entryY=0;entryDx=0;entryDy=0;" parent="1" target="QKaGyioDrKer-OyYTomA-8" edge="1">
          <mxGeometry width="50" height="50" relative="1" as="geometry">
            <mxPoint x="420" y="160" as="sourcePoint" />
            <mxPoint x="370" y="240" as="targetPoint" />
          </mxGeometry>
        </mxCell>
        <mxCell id="QKaGyioDrKer-OyYTomA-3" value="" style="endArrow=classic;html=1;rounded=0;entryX=0.5;entryY=0;entryDx=0;entryDy=0;" parent="1" target="QKaGyioDrKer-OyYTomA-23" edge="1">
          <mxGeometry width="50" height="50" relative="1" as="geometry">
            <mxPoint x="425" y="160" as="sourcePoint" />
            <mxPoint x="572.5" y="240" as="targetPoint" />
          </mxGeometry>
        </mxCell>
        <mxCell id="QKaGyioDrKer-OyYTomA-4" value="Yes" style="text;html=1;align=center;verticalAlign=middle;resizable=0;points=[];autosize=1;strokeColor=none;fillColor=none;rotation=-30;" parent="1" vertex="1">
          <mxGeometry x="310" y="180" width="40" height="30" as="geometry" />
        </mxCell>
        <mxCell id="QKaGyioDrKer-OyYTomA-6" value="No" style="text;html=1;align=center;verticalAlign=middle;resizable=0;points=[];autosize=1;strokeColor=none;fillColor=none;rotation=30;" parent="1" vertex="1">
          <mxGeometry x="485" y="170" width="40" height="30" as="geometry" />
        </mxCell>
        <mxCell id="QKaGyioDrKer-OyYTomA-8" value="&lt;b&gt;Is prefersDarkMode True?&lt;br&gt;&lt;/b&gt;(i.e., does the user have dark mode enabled on their system?)" style="rounded=1;whiteSpace=wrap;html=1;fillColor=#647687;strokeColor=#314354;fontColor=#ffffff;" parent="1" vertex="1">
          <mxGeometry x="180" y="240" width="185" height="60" as="geometry" />
        </mxCell>
        <mxCell id="QKaGyioDrKer-OyYTomA-16" value="" style="endArrow=classic;html=1;rounded=0;exitX=0.5;exitY=1;exitDx=0;exitDy=0;entryX=0.5;entryY=0;entryDx=0;entryDy=0;" parent="1" source="QKaGyioDrKer-OyYTomA-8" target="QKaGyioDrKer-OyYTomA-18" edge="1">
          <mxGeometry width="50" height="50" relative="1" as="geometry">
            <mxPoint x="220" y="370" as="sourcePoint" />
            <mxPoint x="220" y="360" as="targetPoint" />
          </mxGeometry>
        </mxCell>
        <mxCell id="QKaGyioDrKer-OyYTomA-17" value="" style="endArrow=classic;html=1;rounded=0;exitX=0.5;exitY=1;exitDx=0;exitDy=0;entryX=0.5;entryY=0;entryDx=0;entryDy=0;" parent="1" source="QKaGyioDrKer-OyYTomA-8" target="QKaGyioDrKer-OyYTomA-19" edge="1">
          <mxGeometry width="50" height="50" relative="1" as="geometry">
            <mxPoint x="283" y="310" as="sourcePoint" />
            <mxPoint x="320" y="360" as="targetPoint" />
          </mxGeometry>
        </mxCell>
        <mxCell id="QKaGyioDrKer-OyYTomA-18" value="&lt;font color=&quot;#ffffff&quot;&gt;&lt;b&gt;Set mode to &#39;dark&#39;&lt;/b&gt;&lt;/font&gt;" style="rounded=1;whiteSpace=wrap;html=1;fillColor=#383838;" parent="1" vertex="1">
          <mxGeometry x="140" y="360" width="120" height="60" as="geometry" />
        </mxCell>
        <mxCell id="QKaGyioDrKer-OyYTomA-19" value="&lt;b&gt;Set mode to &#39;light&#39;&lt;/b&gt;" style="rounded=1;whiteSpace=wrap;html=1;fillColor=#fad7ac;strokeColor=#b46504;" parent="1" vertex="1">
          <mxGeometry x="290" y="360" width="120" height="60" as="geometry" />
        </mxCell>
        <mxCell id="QKaGyioDrKer-OyYTomA-20" value="Yes" style="text;html=1;align=center;verticalAlign=middle;resizable=0;points=[];autosize=1;strokeColor=none;fillColor=none;rotation=-45;" parent="1" vertex="1">
          <mxGeometry x="210" y="310" width="40" height="30" as="geometry" />
        </mxCell>
        <mxCell id="QKaGyioDrKer-OyYTomA-21" value="No" style="text;html=1;align=center;verticalAlign=middle;resizable=0;points=[];autosize=1;strokeColor=none;fillColor=none;rotation=40;" parent="1" vertex="1">
          <mxGeometry x="310" y="310" width="40" height="30" as="geometry" />
        </mxCell>
        <mxCell id="QKaGyioDrKer-OyYTomA-23" value="&lt;b&gt;Use themeMode&#39;s existing value&lt;/b&gt;" style="rounded=1;whiteSpace=wrap;html=1;fillColor=#b1ddf0;strokeColor=#10739e;" parent="1" vertex="1">
          <mxGeometry x="500" y="240" width="150" height="60" as="geometry" />
        </mxCell>
        <mxCell id="c3v5SgJLz7PMAgPe6fif-1" value="&lt;h2&gt;&lt;b&gt;Logic Used to Determine the Palette Mode&lt;/b&gt;&lt;/h2&gt;" style="text;html=1;align=center;verticalAlign=middle;resizable=0;points=[];autosize=1;strokeColor=none;fillColor=none;" parent="1" vertex="1">
          <mxGeometry x="245" y="40" width="380" height="60" as="geometry" />
        </mxCell>
      </root>
    </mxGraphModel>
  </diagram>
  <diagram id="2C0vKHNm5caFByUsMRYo" name="primary">
    <mxGraphModel dx="1379" dy="764" grid="1" gridSize="10" guides="1" tooltips="1" connect="1" arrows="1" fold="1" page="1" pageScale="1" pageWidth="850" pageHeight="1100" math="0" shadow="0">
      <root>
        <mxCell id="0" />
        <mxCell id="1" parent="0" />
        <mxCell id="48E8nCGBdmc0FiYEIMwp-1" value="&lt;b&gt;Is themeMode null?&lt;/b&gt;" style="rounded=1;whiteSpace=wrap;html=1;fillColor=#d5e8d4;strokeColor=#82b366;" parent="1" vertex="1">
          <mxGeometry x="365" y="100" width="120" height="60" as="geometry" />
        </mxCell>
        <mxCell id="48E8nCGBdmc0FiYEIMwp-2" value="" style="endArrow=classic;html=1;rounded=0;entryX=0.5;entryY=0;entryDx=0;entryDy=0;" parent="1" target="48E8nCGBdmc0FiYEIMwp-6" edge="1">
          <mxGeometry width="50" height="50" relative="1" as="geometry">
            <mxPoint x="420" y="160" as="sourcePoint" />
            <mxPoint x="370" y="240" as="targetPoint" />
          </mxGeometry>
        </mxCell>
        <mxCell id="48E8nCGBdmc0FiYEIMwp-3" value="" style="endArrow=classic;html=1;rounded=0;entryX=0.5;entryY=0;entryDx=0;entryDy=0;" parent="1" target="48E8nCGBdmc0FiYEIMwp-13" edge="1">
          <mxGeometry width="50" height="50" relative="1" as="geometry">
            <mxPoint x="425" y="160" as="sourcePoint" />
            <mxPoint x="572.5" y="240" as="targetPoint" />
          </mxGeometry>
        </mxCell>
        <mxCell id="48E8nCGBdmc0FiYEIMwp-4" value="Yes" style="text;html=1;align=center;verticalAlign=middle;resizable=0;points=[];autosize=1;strokeColor=none;fillColor=none;rotation=-30;" parent="1" vertex="1">
          <mxGeometry x="310" y="180" width="40" height="30" as="geometry" />
        </mxCell>
        <mxCell id="48E8nCGBdmc0FiYEIMwp-5" value="No" style="text;html=1;align=center;verticalAlign=middle;resizable=0;points=[];autosize=1;strokeColor=none;fillColor=none;rotation=30;" parent="1" vertex="1">
          <mxGeometry x="485" y="170" width="40" height="30" as="geometry" />
        </mxCell>
        <mxCell id="48E8nCGBdmc0FiYEIMwp-6" value="&lt;b&gt;Is prefersDarkMode True?&lt;br&gt;&lt;/b&gt;(i.e., does the user have dark mode enabled on their system?)" style="rounded=1;whiteSpace=wrap;html=1;fillColor=#647687;strokeColor=#314354;fontColor=#ffffff;" parent="1" vertex="1">
          <mxGeometry x="180" y="240" width="185" height="60" as="geometry" />
        </mxCell>
        <mxCell id="48E8nCGBdmc0FiYEIMwp-7" value="" style="endArrow=classic;html=1;rounded=0;exitX=0.5;exitY=1;exitDx=0;exitDy=0;entryX=0.5;entryY=0;entryDx=0;entryDy=0;" parent="1" source="48E8nCGBdmc0FiYEIMwp-6" target="48E8nCGBdmc0FiYEIMwp-9" edge="1">
          <mxGeometry width="50" height="50" relative="1" as="geometry">
            <mxPoint x="220" y="370" as="sourcePoint" />
            <mxPoint x="220" y="360" as="targetPoint" />
          </mxGeometry>
        </mxCell>
        <mxCell id="48E8nCGBdmc0FiYEIMwp-8" value="" style="endArrow=classic;html=1;rounded=0;exitX=0.5;exitY=1;exitDx=0;exitDy=0;entryX=0.5;entryY=0;entryDx=0;entryDy=0;" parent="1" source="48E8nCGBdmc0FiYEIMwp-6" target="48E8nCGBdmc0FiYEIMwp-10" edge="1">
          <mxGeometry width="50" height="50" relative="1" as="geometry">
            <mxPoint x="283" y="310" as="sourcePoint" />
            <mxPoint x="320" y="360" as="targetPoint" />
          </mxGeometry>
        </mxCell>
        <mxCell id="48E8nCGBdmc0FiYEIMwp-9" value="&lt;font color=&quot;#ffffff&quot;&gt;&lt;b&gt;Desaturated Heritage Maroon&lt;/b&gt;&lt;/font&gt;" style="rounded=1;whiteSpace=wrap;html=1;fillColor=#86174E;strokeColor=#30081C;" parent="1" vertex="1">
          <mxGeometry x="140" y="360" width="120" height="60" as="geometry" />
        </mxCell>
        <mxCell id="48E8nCGBdmc0FiYEIMwp-10" value="&lt;b&gt;&lt;font color=&quot;#ffffff&quot;&gt;Regular Heritage Maroon&lt;/font&gt;&lt;/b&gt;" style="rounded=1;whiteSpace=wrap;html=1;fillColor=#7a003c;strokeColor=#290014;" parent="1" vertex="1">
          <mxGeometry x="290" y="360" width="120" height="60" as="geometry" />
        </mxCell>
        <mxCell id="48E8nCGBdmc0FiYEIMwp-11" value="Yes" style="text;html=1;align=center;verticalAlign=middle;resizable=0;points=[];autosize=1;strokeColor=none;fillColor=none;rotation=-45;" parent="1" vertex="1">
          <mxGeometry x="210" y="310" width="40" height="30" as="geometry" />
        </mxCell>
        <mxCell id="48E8nCGBdmc0FiYEIMwp-12" value="No" style="text;html=1;align=center;verticalAlign=middle;resizable=0;points=[];autosize=1;strokeColor=none;fillColor=none;rotation=40;" parent="1" vertex="1">
          <mxGeometry x="310" y="310" width="40" height="30" as="geometry" />
        </mxCell>
        <mxCell id="48E8nCGBdmc0FiYEIMwp-13" value="&lt;b&gt;Is themeMode equal to &#39;light&#39;? &lt;/b&gt;(i.e., did the user manually set the website to light mode?)" style="rounded=1;whiteSpace=wrap;html=1;fillColor=#b1ddf0;strokeColor=#10739e;" parent="1" vertex="1">
          <mxGeometry x="500" y="240" width="180" height="60" as="geometry" />
        </mxCell>
        <mxCell id="K1rBlaWydDBny6NhkVJE-1" value="" style="endArrow=classic;html=1;rounded=0;exitX=0.5;exitY=1;exitDx=0;exitDy=0;entryX=0.5;entryY=0;entryDx=0;entryDy=0;" parent="1" edge="1">
          <mxGeometry width="50" height="50" relative="1" as="geometry">
            <mxPoint x="593" y="300" as="sourcePoint" />
            <mxPoint x="520" y="360" as="targetPoint" />
          </mxGeometry>
        </mxCell>
        <mxCell id="K1rBlaWydDBny6NhkVJE-2" value="" style="endArrow=classic;html=1;rounded=0;exitX=0.5;exitY=1;exitDx=0;exitDy=0;entryX=0.5;entryY=0;entryDx=0;entryDy=0;" parent="1" edge="1">
          <mxGeometry width="50" height="50" relative="1" as="geometry">
            <mxPoint x="593" y="300" as="sourcePoint" />
            <mxPoint x="670" y="360" as="targetPoint" />
          </mxGeometry>
        </mxCell>
        <mxCell id="K1rBlaWydDBny6NhkVJE-5" value="Yes" style="text;html=1;align=center;verticalAlign=middle;resizable=0;points=[];autosize=1;strokeColor=none;fillColor=none;rotation=-45;" parent="1" vertex="1">
          <mxGeometry x="530" y="310" width="40" height="30" as="geometry" />
        </mxCell>
        <mxCell id="K1rBlaWydDBny6NhkVJE-6" value="No" style="text;html=1;align=center;verticalAlign=middle;resizable=0;points=[];autosize=1;strokeColor=none;fillColor=none;rotation=40;" parent="1" vertex="1">
          <mxGeometry x="630" y="310" width="40" height="30" as="geometry" />
        </mxCell>
        <mxCell id="K1rBlaWydDBny6NhkVJE-9" value="&lt;h2&gt;&lt;b&gt;Logic Used to Determine the Primary Color&lt;/b&gt;&lt;/h2&gt;" style="text;html=1;align=center;verticalAlign=middle;resizable=0;points=[];autosize=1;strokeColor=none;fillColor=none;" parent="1" vertex="1">
          <mxGeometry x="230" y="40" width="390" height="60" as="geometry" />
        </mxCell>
        <mxCell id="17IAGdU5tz1s6wi5rcHn-1" value="&lt;b&gt;&lt;font color=&quot;#ffffff&quot;&gt;Regular Heritage Maroon&lt;/font&gt;&lt;/b&gt;" style="rounded=1;whiteSpace=wrap;html=1;fillColor=#7a003c;strokeColor=#290014;" parent="1" vertex="1">
          <mxGeometry x="460" y="360" width="120" height="60" as="geometry" />
        </mxCell>
        <mxCell id="17IAGdU5tz1s6wi5rcHn-2" value="&lt;font color=&quot;#ffffff&quot;&gt;&lt;b&gt;Desaturated Heritage Maroon&lt;/b&gt;&lt;/font&gt;" style="rounded=1;whiteSpace=wrap;html=1;fillColor=#86174E;strokeColor=#30081C;" parent="1" vertex="1">
          <mxGeometry x="610" y="360" width="120" height="60" as="geometry" />
        </mxCell>
      </root>
    </mxGraphModel>
  </diagram>
  <diagram id="Bc6I8-LkB1O2vpX-yuDa" name="secondary">
    <mxGraphModel dx="1379" dy="764" grid="1" gridSize="10" guides="1" tooltips="1" connect="1" arrows="1" fold="1" page="1" pageScale="1" pageWidth="850" pageHeight="1100" math="0" shadow="0">
      <root>
        <mxCell id="0" />
        <mxCell id="1" parent="0" />
        <mxCell id="wv4Mp8pRh8Mp-oV6V7JX-1" value="&lt;b&gt;Is themeMode null?&lt;/b&gt;" style="rounded=1;whiteSpace=wrap;html=1;fillColor=#d5e8d4;strokeColor=#82b366;" parent="1" vertex="1">
          <mxGeometry x="365" y="100" width="120" height="60" as="geometry" />
        </mxCell>
        <mxCell id="wv4Mp8pRh8Mp-oV6V7JX-2" value="" style="endArrow=classic;html=1;rounded=0;entryX=0.5;entryY=0;entryDx=0;entryDy=0;" parent="1" target="wv4Mp8pRh8Mp-oV6V7JX-6" edge="1">
          <mxGeometry width="50" height="50" relative="1" as="geometry">
            <mxPoint x="420" y="160" as="sourcePoint" />
            <mxPoint x="370" y="240" as="targetPoint" />
          </mxGeometry>
        </mxCell>
        <mxCell id="wv4Mp8pRh8Mp-oV6V7JX-3" value="" style="endArrow=classic;html=1;rounded=0;entryX=0.5;entryY=0;entryDx=0;entryDy=0;" parent="1" target="wv4Mp8pRh8Mp-oV6V7JX-13" edge="1">
          <mxGeometry width="50" height="50" relative="1" as="geometry">
            <mxPoint x="425" y="160" as="sourcePoint" />
            <mxPoint x="572.5" y="240" as="targetPoint" />
          </mxGeometry>
        </mxCell>
        <mxCell id="wv4Mp8pRh8Mp-oV6V7JX-4" value="Yes" style="text;html=1;align=center;verticalAlign=middle;resizable=0;points=[];autosize=1;strokeColor=none;fillColor=none;rotation=-30;" parent="1" vertex="1">
          <mxGeometry x="310" y="180" width="40" height="30" as="geometry" />
        </mxCell>
        <mxCell id="wv4Mp8pRh8Mp-oV6V7JX-5" value="No" style="text;html=1;align=center;verticalAlign=middle;resizable=0;points=[];autosize=1;strokeColor=none;fillColor=none;rotation=30;" parent="1" vertex="1">
          <mxGeometry x="485" y="170" width="40" height="30" as="geometry" />
        </mxCell>
        <mxCell id="wv4Mp8pRh8Mp-oV6V7JX-6" value="&lt;b&gt;Is prefersDarkMode True?&lt;br&gt;&lt;/b&gt;(i.e., does the user have dark mode enabled on their system?)" style="rounded=1;whiteSpace=wrap;html=1;fillColor=#647687;strokeColor=#314354;fontColor=#ffffff;" parent="1" vertex="1">
          <mxGeometry x="180" y="240" width="185" height="60" as="geometry" />
        </mxCell>
        <mxCell id="wv4Mp8pRh8Mp-oV6V7JX-7" value="" style="endArrow=classic;html=1;rounded=0;exitX=0.5;exitY=1;exitDx=0;exitDy=0;entryX=0.5;entryY=0;entryDx=0;entryDy=0;" parent="1" source="wv4Mp8pRh8Mp-oV6V7JX-6" target="wv4Mp8pRh8Mp-oV6V7JX-9" edge="1">
          <mxGeometry width="50" height="50" relative="1" as="geometry">
            <mxPoint x="220" y="370" as="sourcePoint" />
            <mxPoint x="220" y="360" as="targetPoint" />
          </mxGeometry>
        </mxCell>
        <mxCell id="wv4Mp8pRh8Mp-oV6V7JX-8" value="" style="endArrow=classic;html=1;rounded=0;exitX=0.5;exitY=1;exitDx=0;exitDy=0;entryX=0.5;entryY=0;entryDx=0;entryDy=0;" parent="1" source="wv4Mp8pRh8Mp-oV6V7JX-6" target="wv4Mp8pRh8Mp-oV6V7JX-10" edge="1">
          <mxGeometry width="50" height="50" relative="1" as="geometry">
            <mxPoint x="283" y="310" as="sourcePoint" />
            <mxPoint x="320" y="360" as="targetPoint" />
          </mxGeometry>
        </mxCell>
        <mxCell id="wv4Mp8pRh8Mp-oV6V7JX-9" value="&lt;b style=&quot;&quot;&gt;&lt;font color=&quot;#3b2e18&quot;&gt;Desaturated Heritage Gold&lt;/font&gt;&lt;/b&gt;" style="rounded=1;whiteSpace=wrap;html=1;fillColor=#FDC566;strokeColor=#3B2E18;" parent="1" vertex="1">
          <mxGeometry x="140" y="360" width="120" height="60" as="geometry" />
        </mxCell>
        <mxCell id="wv4Mp8pRh8Mp-oV6V7JX-10" value="&lt;b&gt;&lt;font color=&quot;#403016&quot;&gt;Regular Heritage Gold&lt;/font&gt;&lt;/b&gt;" style="rounded=1;whiteSpace=wrap;html=1;fillColor=#fdbf57;strokeColor=#403016;" parent="1" vertex="1">
          <mxGeometry x="290" y="360" width="120" height="60" as="geometry" />
        </mxCell>
        <mxCell id="wv4Mp8pRh8Mp-oV6V7JX-11" value="Yes" style="text;html=1;align=center;verticalAlign=middle;resizable=0;points=[];autosize=1;strokeColor=none;fillColor=none;rotation=-45;" parent="1" vertex="1">
          <mxGeometry x="210" y="310" width="40" height="30" as="geometry" />
        </mxCell>
        <mxCell id="wv4Mp8pRh8Mp-oV6V7JX-12" value="No" style="text;html=1;align=center;verticalAlign=middle;resizable=0;points=[];autosize=1;strokeColor=none;fillColor=none;rotation=40;" parent="1" vertex="1">
          <mxGeometry x="310" y="310" width="40" height="30" as="geometry" />
        </mxCell>
        <mxCell id="wv4Mp8pRh8Mp-oV6V7JX-13" value="&lt;b&gt;Is themeMode equal to &#39;light&#39;? &lt;/b&gt;(i.e., did the user manually set the website to light mode?)" style="rounded=1;whiteSpace=wrap;html=1;fillColor=#b1ddf0;strokeColor=#10739e;" parent="1" vertex="1">
          <mxGeometry x="500" y="240" width="180" height="60" as="geometry" />
        </mxCell>
        <mxCell id="wv4Mp8pRh8Mp-oV6V7JX-14" value="" style="endArrow=classic;html=1;rounded=0;exitX=0.5;exitY=1;exitDx=0;exitDy=0;entryX=0.5;entryY=0;entryDx=0;entryDy=0;" parent="1" edge="1">
          <mxGeometry width="50" height="50" relative="1" as="geometry">
            <mxPoint x="593" y="300" as="sourcePoint" />
            <mxPoint x="520" y="360" as="targetPoint" />
          </mxGeometry>
        </mxCell>
        <mxCell id="wv4Mp8pRh8Mp-oV6V7JX-15" value="" style="endArrow=classic;html=1;rounded=0;exitX=0.5;exitY=1;exitDx=0;exitDy=0;entryX=0.5;entryY=0;entryDx=0;entryDy=0;" parent="1" edge="1">
          <mxGeometry width="50" height="50" relative="1" as="geometry">
            <mxPoint x="593" y="300" as="sourcePoint" />
            <mxPoint x="670" y="360" as="targetPoint" />
          </mxGeometry>
        </mxCell>
        <mxCell id="wv4Mp8pRh8Mp-oV6V7JX-16" value="Yes" style="text;html=1;align=center;verticalAlign=middle;resizable=0;points=[];autosize=1;strokeColor=none;fillColor=none;rotation=-45;" parent="1" vertex="1">
          <mxGeometry x="530" y="310" width="40" height="30" as="geometry" />
        </mxCell>
        <mxCell id="wv4Mp8pRh8Mp-oV6V7JX-17" value="No" style="text;html=1;align=center;verticalAlign=middle;resizable=0;points=[];autosize=1;strokeColor=none;fillColor=none;rotation=40;" parent="1" vertex="1">
          <mxGeometry x="630" y="310" width="40" height="30" as="geometry" />
        </mxCell>
        <mxCell id="wv4Mp8pRh8Mp-oV6V7JX-20" value="&lt;h2&gt;&lt;b&gt;Logic Used to Determine the Secondary Color&lt;/b&gt;&lt;/h2&gt;" style="text;html=1;align=center;verticalAlign=middle;resizable=0;points=[];autosize=1;strokeColor=none;fillColor=none;" parent="1" vertex="1">
          <mxGeometry x="215" y="40" width="420" height="60" as="geometry" />
        </mxCell>
        <mxCell id="vKaCS4hi8Qok0WjMWFkM-3" value="&lt;b style=&quot;&quot;&gt;&lt;font color=&quot;#3b2e18&quot;&gt;Desaturated Heritage Gold&lt;/font&gt;&lt;/b&gt;" style="rounded=1;whiteSpace=wrap;html=1;fillColor=#FDC566;strokeColor=#3B2E18;" parent="1" vertex="1">
          <mxGeometry x="610" y="360" width="120" height="60" as="geometry" />
        </mxCell>
        <mxCell id="vKaCS4hi8Qok0WjMWFkM-4" value="&lt;b&gt;&lt;font color=&quot;#403016&quot;&gt;Regular Heritage Gold&lt;/font&gt;&lt;/b&gt;" style="rounded=1;whiteSpace=wrap;html=1;fillColor=#fdbf57;strokeColor=#403016;" parent="1" vertex="1">
          <mxGeometry x="460" y="360" width="120" height="60" as="geometry" />
        </mxCell>
      </root>
    </mxGraphModel>
  </diagram>
</mxfile>
